# xmcd
#
# Track frame offsets:
#	182
#	10205
#	20490
#	30890
#	41682
#	52155
#	62852
#	73280
#	83915
#	94175
#	104665
#	115510
#	125802
#	136400
#	146897
#	156830
#	167160
#	177420
#
# Disc length: 2500 seconds
#
# Revision: 0
# Processed by: cddbd v1.5.2PL0 Copyright (c) Steve Scherf et al.
# Submitted via: audiograbber 1.83.01
#
DISCID=0809c212
DTITLE=The Porter Twin Disk Music Box - Music Box Pop and Country
DYEAR=1988
DGENRE=Instrumental
TTITLE0=I Just Called To Say I Love You
TTITLE1=Put Me On Top Of The World
TTITLE2=St. Elmo's Fire
TTITLE3=Chariots Of Fire
TTITLE4=The Way We Were
TTITLE5=I'll Never Fall In Love Again
TTITLE6=As Time Goes By
TTITLE7=Carousel Waltz
TTITLE8=Moon River
TTITLE9=Have I Told You Lately That I Love You
TTITLE10=Hey, Won't You Play Another Somebody Done Somebody Wrong Song
TTITLE11=Nine To Five
TTITLE12=Gentle On My Mind
TTITLE13=Take Me Home Country Road
TTITLE14=Always On My Mind
TTITLE15=Help Me Make It Through The Night
TTITLE16=You Decorated My Life
TTITLE17=Hello Dolly
EXTD=
EXTT0=
EXTT1=
EXTT2=
EXTT3=
EXTT4=
EXTT5=
EXTT6=
EXTT7=
EXTT8=
EXTT9=
EXTT10=
EXTT11=
EXTT12=
EXTT13=
EXTT14=
EXTT15=
EXTT16=
EXTT17=
PLAYORDER=
